<svg width="116" height="64" viewBox="0 0 116 64" fill="none" xmlns="http://www.w3.org/2000/svg">
<path d="M22.2012 32.8655C22.2012 31.1969 23.1975 30.0344 24.72 30.0344C26.2426 30.0344 27.2388 31.1969 27.2388 32.8655C27.2388 34.5155 26.2426 35.6967 24.72 35.6967C23.1975 35.6967 22.2012 34.5155 22.2012 32.8655Z" fill="black"/>
<path d="M35.0779 29.9595C33.6305 29.9595 32.6531 31.0844 32.6531 32.6219C32.6531 34.1781 33.6493 35.3405 35.0779 35.3405C36.6568 35.3405 37.7095 34.1593 37.7095 32.6219C37.7095 31.1031 36.6568 29.9595 35.0779 29.9595Z" fill="black"/>
<path d="M43.4684 32.8655C43.4684 31.1969 44.4647 30.0344 45.9872 30.0344C47.5098 30.0344 48.506 31.1969 48.506 32.8655C48.506 34.5155 47.5098 35.6967 45.9872 35.6967C44.4647 35.6967 43.4684 34.5155 43.4684 32.8655Z" fill="black"/>
<path d="M58.7866 32.8843C58.7866 31.2157 59.8017 30.0532 61.3994 30.0532C62.9972 30.0532 63.9558 31.2344 63.9558 32.8843C63.9558 34.5343 62.9972 35.6967 61.3994 35.6967C59.8017 35.6967 58.7866 34.553 58.7866 32.8843Z" fill="black"/>
<path fill-rule="evenodd" clip-rule="evenodd" d="M57.8297 52.4808C89.7679 52.4808 115.659 43.4188 115.659 32.2404C115.659 21.0619 89.7679 12 57.8297 12C25.8912 12 0 21.0619 0 32.2404C0 43.4188 25.8912 52.4808 57.8297 52.4808ZM18.4856 37.5154V23.5659H16.1923V37.5154H18.4856ZM19.8891 32.8655C19.8891 35.7154 21.8065 37.7404 24.7201 37.7404C27.6336 37.7404 29.5509 35.7154 29.5509 32.8655C29.5509 30.0156 27.6336 27.9908 24.7201 27.9908C21.8065 27.9908 19.8891 30.0156 19.8891 32.8655ZM34.6832 37.3279C32.0703 37.3279 30.3222 35.378 30.3222 32.678C30.3222 29.9594 32.1079 27.9532 34.7583 27.9532C36.1305 27.9532 37.2959 28.5345 37.8598 29.5095L37.9914 28.2532H40.0215V37.0467C40.0215 40.1028 38.1043 42.0714 35.0967 42.0714C32.5402 42.0714 30.6793 40.4965 30.3786 38.0778H32.6907C32.8222 39.2966 33.7997 39.9903 35.2282 39.9903C36.826 39.9903 37.7847 38.9778 37.7847 37.4591V35.8842C37.2019 36.7841 36.0365 37.3279 34.6832 37.3279ZM41.1564 32.8655C41.1564 35.7154 43.0737 37.7404 45.9873 37.7404C48.9009 37.7404 50.8181 35.7154 50.8181 32.8655C50.8181 30.0156 48.9009 27.9908 45.9873 27.9908C43.0737 27.9908 41.1564 30.0156 41.1564 32.8655ZM54.6722 24.9909C54.6722 25.7596 54.0519 26.3596 53.2999 26.3596C52.5293 26.3596 51.9466 25.7596 51.9466 24.9909C51.9466 24.2409 52.5293 23.6409 53.2999 23.6409C54.0519 23.6409 54.6722 24.2409 54.6722 24.9909ZM54.4466 28.2532V37.5154H52.1534V28.2532H54.4466ZM56.4557 41.8089H58.6926V36.2404C59.2753 37.1966 60.5347 37.7591 61.9257 37.7591C64.6701 37.7591 66.3054 35.6592 66.2678 32.7718C66.2114 29.8657 64.5385 27.972 61.9069 27.972C60.4971 27.972 59.2189 28.5907 58.655 29.6594L58.5234 28.2532H56.4557V41.8089ZM70.5719 37.7591C68.3539 37.7591 66.9253 36.5779 66.8501 34.7405H68.9366C68.9366 35.5467 69.5193 36.0154 70.5343 36.0154C71.3803 36.0154 72.0757 35.678 72.0757 34.9467C72.0757 34.4217 71.6997 34.1405 71.0982 33.9718L69.4817 33.5593C67.696 33.0905 67.0005 32.0968 67.0005 30.8969C67.0005 29.1344 68.4855 27.972 70.4779 27.972C72.4892 27.972 73.8614 29.1344 73.9366 30.9719H71.8502C71.8502 30.1657 71.2862 29.6782 70.4216 29.6782C69.5945 29.6782 69.087 30.1281 69.087 30.7657C69.087 31.3656 69.5569 31.6093 70.2524 31.7968L71.8878 32.1906C73.4104 32.5655 74.2374 33.4655 74.2374 34.7968C74.2374 36.5966 72.7524 37.7591 70.5719 37.7591ZM78.9943 37.7591C80.2533 37.7591 81.4562 37.1779 82.0015 36.3154L82.1522 37.5154H84.2949V28.2532H82.0015V33.1093C82.0015 34.778 81.3624 35.7154 79.8588 35.7154C78.6936 35.7154 77.8853 35.153 77.8853 33.2406V28.2532H75.5918V34.0467C75.5918 36.2592 76.7948 37.7591 78.9943 37.7591ZM88.6124 32.1906V37.5154H86.3189V28.2532H88.4239L88.537 29.3032C89.0823 28.4782 90.0598 27.972 91.1496 27.972C92.6909 27.972 93.7061 28.6469 94.2137 29.7344C94.6652 28.6469 95.7742 27.972 97.1839 27.972C99.4397 27.972 100.623 29.322 100.623 31.4594V37.5154H98.4052V31.9843C98.4052 30.6719 97.6915 29.9782 96.5825 29.9782C95.4919 29.9782 94.6275 30.6907 94.6275 32.2093V37.5154H92.3902V31.9843C92.3902 30.6719 91.6765 29.9782 90.5859 29.9782C89.4961 29.9782 88.6124 30.6907 88.6124 32.1906Z" fill="black"/>
</svg>
