<svg width="83" height="64" viewBox="0 0 83 64" fill="none" xmlns="http://www.w3.org/2000/svg">
<path d="M3.93532 19.4939C4.14982 18.4758 5.16457 17.65 6.19829 17.65H11.8182L7.14457 39.779H1.52467C0.490116 39.779 -0.174834 38.954 0.040491 37.9351L3.93532 19.4939ZM22.6686 19.4939C22.8839 18.4758 23.8978 17.65 24.9316 17.65H30.5515L25.8778 39.779H20.2579C19.2234 39.779 18.5584 38.954 18.7738 37.9351L22.6686 19.4939ZM60.136 19.4939C60.3505 18.4758 61.3636 17.65 62.3989 17.65H68.0188L63.3452 39.779H57.7245C56.6899 39.779 56.0258 38.954 56.2411 37.9351L60.136 19.4939ZM32.425 17.65H38.0449C39.0795 17.65 39.7444 18.475 39.5291 19.4939L35.6343 37.9351C35.4198 38.954 34.4059 39.779 33.3713 39.779H27.7514L32.425 17.65ZM69.8924 17.65H75.5123C76.5469 17.65 77.2118 18.475 76.9965 19.4939L73.1008 37.9351C72.8863 38.954 71.8732 39.779 70.8387 39.779H65.218L69.8924 17.65ZM41.4027 19.4939C41.6172 18.4758 42.6303 17.65 43.6648 17.65H49.2856L44.6111 39.779H38.9912C37.9567 39.779 37.2917 38.954 37.5079 37.9351L41.4019 19.4939H41.4027ZM51.1583 17.65H56.779C57.8136 17.65 58.4777 18.475 58.2624 19.4939L52.4206 47.1561C52.2044 48.1742 51.1913 49 50.1568 49H44.536L51.1583 17.65ZM10.5757 32.4026H18.0692L16.901 37.9351C16.6857 38.954 15.6718 39.779 14.638 39.779H9.01732L10.5749 32.4035L10.5757 32.4026ZM36.7291 41.6237H44.2217L42.6641 49H37.0442C36.0088 49 35.3447 48.175 35.56 47.1561L36.7291 41.6237ZM57.0686 43.3389L56.1199 47.8318C56.0786 48.0248 56.0143 48.0776 55.8179 48.0776H55.3864C55.1901 48.0776 55.1472 48.0248 55.1884 47.8318L56.1372 43.3389C56.1784 43.1466 56.2428 43.093 56.4391 43.093H56.8706C57.067 43.093 57.1099 43.1466 57.0686 43.3389ZM58.316 46.3699H58.2277C58.1337 46.3699 58.1007 46.3963 58.0817 46.4895L57.7979 47.8318C57.7567 48.0248 57.6915 48.0776 57.496 48.0776H57.0637C56.8681 48.0776 56.8252 48.0248 56.8657 47.8318L57.8144 43.3389C57.8557 43.1466 57.9217 43.093 58.1172 43.093H59.0082C60.0345 43.093 60.4231 43.4585 60.2333 44.3552L60.0749 45.1068C59.8852 46.0044 59.3423 46.3699 58.316 46.3699ZM58.5767 44.1432L58.3292 45.3197C58.3086 45.4129 58.33 45.4393 58.4249 45.4393H58.5668C58.8968 45.4393 59.0742 45.3065 59.146 44.9674L59.245 44.4955C59.3167 44.1573 59.1963 44.0236 58.8655 44.0236H58.7236C58.6295 44.0236 58.5965 44.05 58.5767 44.1432ZM61.6606 44.8676L62.3618 45.6389C62.7298 46.0374 62.7809 46.2767 62.6869 46.7222L62.6621 46.8418C62.4847 47.6792 62.0623 48.1445 61.0831 48.1445C60.1046 48.1445 59.8629 47.7526 60.0889 46.6817L60.117 46.5497C60.1582 46.3567 60.2234 46.3031 60.4189 46.3031H60.8776C61.074 46.3031 61.1169 46.3567 61.0756 46.5489L61.0138 46.8418C60.9577 47.1074 61.0435 47.2139 61.2794 47.2139C61.5162 47.2139 61.6449 47.1149 61.696 46.8756L61.7224 46.7486C61.762 46.5621 61.7406 46.4697 61.5376 46.2503L60.8776 45.5391C60.508 45.1472 60.461 44.9204 60.5551 44.4749L60.5856 44.3297C60.763 43.4923 61.1854 43.0262 62.1638 43.0262C63.1431 43.0262 63.3848 43.4189 63.1588 44.4889L63.1307 44.6217C63.0895 44.8148 63.0243 44.8676 62.8288 44.8676H62.3692C62.1737 44.8676 62.1308 44.8148 62.1712 44.6217L62.2331 44.3297C62.2892 44.0632 62.2042 43.9576 61.9675 43.9576C61.7315 43.9576 61.602 44.0566 61.5517 44.2958L61.5277 44.4089C61.4865 44.6019 61.5079 44.6952 61.6606 44.8676ZM65.614 43.3389C65.6552 43.1466 65.7196 43.093 65.9159 43.093H66.3474C66.5437 43.093 66.5866 43.1466 66.5454 43.3389L65.8392 46.6826C65.6131 47.7526 65.2064 48.1445 64.2271 48.1445C63.2487 48.1445 63.007 47.7526 63.233 46.6817L63.9392 43.3389C63.9805 43.1466 64.0456 43.093 64.2412 43.093H64.6735C64.869 43.093 64.9119 43.1466 64.8715 43.3389L64.1314 46.8418C64.0753 47.1074 64.1677 47.2139 64.4243 47.2139C64.6735 47.2139 64.8178 47.1074 64.8739 46.8418L65.614 43.3389ZM68.4239 46.044C68.4264 46.0976 68.4437 46.11 68.4775 46.11C68.5105 46.11 68.5345 46.0976 68.5592 46.044L69.7258 43.2662C69.7827 43.126 69.8503 43.093 70.0195 43.093H70.6745C70.87 43.093 70.9129 43.1466 70.8725 43.3389L69.9238 47.8318C69.8825 48.0248 69.8165 48.0776 69.621 48.0776H69.3108C69.1153 48.0776 69.0715 48.0248 69.1128 47.8318L69.5682 45.6785C69.5806 45.6191 69.5698 45.6051 69.5294 45.6051C69.5022 45.6051 69.4717 45.6191 69.4552 45.6653L68.513 47.859C68.4454 48.0183 68.3587 48.0776 68.1632 48.0776H67.9801C67.7771 48.0776 67.7161 48.0183 67.7161 47.859L67.693 45.6645C67.6888 45.6183 67.6781 45.6051 67.6443 45.6051C67.6039 45.6051 67.5874 45.6191 67.575 45.6785L67.1204 47.8318C67.0792 48.0248 67.0148 48.0776 66.8185 48.0776H66.5083C66.3119 48.0776 66.269 48.0248 66.3103 47.8318L67.259 43.3389C67.3003 43.1466 67.3654 43.093 67.561 43.093H68.122C68.3579 43.093 68.4338 43.1466 68.4322 43.3793L68.4231 46.044H68.4239ZM82.5001 17.65C82.5001 18.5616 81.7658 19.3 80.8608 19.3C80.6448 19.2994 80.431 19.2562 80.2318 19.1729C80.0325 19.0896 79.8515 18.9679 79.6993 18.8146C79.5471 18.6614 79.4265 18.4797 79.3445 18.2798C79.2626 18.08 79.2208 17.866 79.2215 17.65C79.2215 16.7384 79.9558 16 80.8608 16C81.7658 16 82.5001 16.7384 82.5001 17.65Z" fill="black"/>
</svg>
