<svg width="51" height="64" viewBox="0 0 51 64" fill="none" xmlns="http://www.w3.org/2000/svg">
<path d="M10.3147 49.1617H12.6764C12.651 49.3995 12.6 49.8668 12.43 50.1981C11.8948 51.345 10.663 51.9822 8.32673 51.9822C6.45765 51.9822 5.24277 51.5149 4.58862 50.7249C4.13835 50.1981 3.90894 49.4675 3.90894 48.533C3.90894 47.6835 4.12136 46.9783 4.5461 46.4601C5.22579 45.6105 6.44916 45.1008 8.36917 45.1008C10.9858 45.1008 12.0732 46.0353 12.4726 47.0293C12.6085 47.3776 12.651 47.7684 12.6595 47.9808H10.2977C10.2891 47.8279 10.2297 47.6325 10.1277 47.488C9.88136 47.1313 9.33763 46.8679 8.34371 46.8679C7.44316 46.8679 6.78901 47.0972 6.49161 47.5645C6.33874 47.7939 6.27924 48.1338 6.27924 48.5585C6.27924 49.0173 6.35571 49.3316 6.51715 49.561C6.8485 50.0537 7.58761 50.2406 8.35219 50.2406C9.24418 50.2406 9.88129 50.0622 10.1617 49.6544C10.2637 49.51 10.3062 49.3401 10.3147 49.1617Z" fill="black"/>
<path d="M19.9716 50.1046V51.8802H13.6084V45.2112H15.9107V50.1046H19.9716Z" fill="black"/>
<path d="M27.902 51.8802V50.2235H23.119V49.357H27.7066V47.7343H23.119V46.8763H27.8426V45.2112H20.8762V51.8802H27.902Z" fill="black"/>
<path fill-rule="evenodd" clip-rule="evenodd" d="M34.9028 50.6483H31.3007L30.6805 51.8802H28.2762L31.8359 45.2112H34.5799L37.9443 51.8802H35.489L34.9028 50.6483ZM32.0483 49.1531H34.1809L33.3821 47.5389L33.1442 46.9357L32.8894 47.5474L32.0483 49.1531Z" fill="black"/>
<path fill-rule="evenodd" clip-rule="evenodd" d="M46.4817 47.2416C46.4817 46.6384 46.3373 46.2051 46.0312 45.8908C45.6321 45.466 44.9436 45.2112 43.8908 45.2112H38.5806V51.8802H40.8493V49.5269H42.9135L44.5699 51.8802H47.1021L45.0887 49.1616C45.5385 49.0936 45.9042 48.8218 46.1415 48.4989C46.3541 48.2016 46.4817 47.7598 46.4817 47.2416ZM44.2725 47.454C44.2725 47.5644 44.2558 47.7004 44.1963 47.8023C44.1114 47.9722 43.8908 48.0402 43.5251 48.0402H40.8573V46.8253H43.4824C43.8393 46.8253 44.0773 46.8848 44.1963 47.1057C44.2558 47.1906 44.2725 47.3266 44.2725 47.454Z" fill="black"/>
<path d="M33.9549 14.8376C33.9549 14.9481 33.9382 15.084 33.8787 15.1859C33.7938 15.3559 33.5726 15.4238 33.2074 15.4238H30.5398V14.209H33.1649C33.5218 14.209 33.7598 14.2684 33.8787 14.4893C33.9382 14.5743 33.9549 14.7102 33.9549 14.8376Z" fill="black"/>
<path d="M40.5967 16.5369H42.7291L41.9303 14.9227L41.6923 14.3196L41.4376 14.9313L40.5967 16.5369Z" fill="black"/>
<path fill-rule="evenodd" clip-rule="evenodd" d="M0.027741 14.822C0.302811 12.1136 2.5902 10 5.37125 10H45.4317C48.3983 10 50.8027 12.4048 50.8027 15.3713V48.9851C50.8027 51.9516 48.3983 54.3564 45.4317 54.3564H5.37125C2.40477 54.3564 0 51.9516 0 48.9851V15.3713C0 15.1858 0.0094253 15.0027 0.027741 14.822ZM1.119 25.0233L19.172 31.1289C19.6638 30.6299 20.3331 30.1961 21.1381 29.8581C21.3232 29.7804 21.5143 29.7083 21.7104 29.642L14.1838 22.0053H20.0754L23.3829 29.2362C23.8197 29.1677 24.2687 29.124 24.7238 29.1066C24.8752 29.1008 25.0266 29.0978 25.1778 29.0978V22.0053H30.28L26.9725 29.2363C27.482 29.3164 27.9767 29.4305 28.4463 29.5775C29.0508 29.7668 29.601 30.0065 30.081 30.2878L44.2198 22.0053H49.6837V24.8719L28.9874 31.8715C28.5524 31.4301 27.9037 31.0742 27.1232 30.8487C26.3429 30.6233 25.4659 30.5385 24.6032 30.605C23.7406 30.6715 22.931 30.8864 22.2768 31.2225C21.6226 31.5586 21.1532 32.0008 20.928 32.4931C20.7028 32.9854 20.7319 33.5058 21.0116 33.9885C21.2913 34.4711 21.8091 34.8944 22.4993 35.2047C23.1896 35.515 24.0215 35.6983 24.8898 35.7317C25.3722 35.7502 25.8539 35.722 26.316 35.6494C26.6853 35.5914 27.0425 35.5051 27.3772 35.3919L34.2364 42.3511H29.3818L26.9722 37.0839C25.7952 37.2687 24.5573 37.2683 23.3829 37.084L20.9736 42.3511H16.1192L21.7103 36.6782C21.1869 36.5011 20.7037 36.2843 20.274 36.0326L9.48801 42.3511H1.119V41.297L19.1719 35.1913C18.7566 34.7698 18.4719 34.3062 18.3354 33.8218C18.1741 33.2493 18.2245 32.6653 18.4792 32.1087L1.119 29.3838V25.0233ZM49.6837 41.4482L25.1778 33.1601L49.6837 37.0066V41.4482ZM49.6837 43.4701H1.119V48.9851C1.119 51.3335 3.02276 53.2373 5.37125 53.2373H45.4317C47.78 53.2373 49.6837 51.3335 49.6837 48.9851V43.4701ZM13.0368 16.6899V12.595H10.76V16.4859C10.76 17.1826 10.1144 17.6499 9.02697 17.6499C7.88853 17.6499 7.26833 17.1996 7.26833 16.4774V12.595H4.96603V16.4774C4.96603 18.4994 6.62274 19.3575 8.93352 19.3575C11.4057 19.3575 13.0368 18.4909 13.0368 16.6899ZM20.7046 19.264V17.4884H16.6438V12.595H14.3415V19.264H20.7046ZM27.5468 12.595V14.2686H24.7264V19.264H22.3985V14.2686H19.5865V12.595H27.5468ZM36.1635 14.6255C36.1635 14.0223 36.0191 13.589 35.7136 13.2746C35.3146 12.8499 34.6261 12.595 33.5726 12.595H28.263V19.264H30.5312V16.9107H32.5957L34.2524 19.264H36.7838L34.7704 16.5454C35.221 16.4774 35.586 16.2056 35.8239 15.8828C36.0365 15.5855 36.1635 15.1437 36.1635 14.6255ZM43.451 18.0321H39.8487L39.2291 19.264H36.8246L40.3841 12.595H43.1282L46.4925 19.264H44.0373L43.451 18.0321Z" fill="black"/>
</svg>
