<svg width="120" height="64" viewBox="0 0 120 64" fill="none" xmlns="http://www.w3.org/2000/svg">
<path fill-rule="evenodd" clip-rule="evenodd" d="M7.1111 19.7751V46.4024H0V19.7751H7.1111Z" fill="black"/>
<path fill-rule="evenodd" clip-rule="evenodd" d="M10.6667 19.7751H25.7778C30.687 19.7751 34.6667 23.7489 34.6667 28.6509C34.6667 33.5528 30.687 37.5266 25.7778 37.5266H17.7778V46.4024H10.6667V19.7751ZM17.7778 30.426H25.7778C26.7597 30.426 27.5556 29.6313 27.5556 28.6509C27.5556 27.6705 26.7597 26.8757 25.7778 26.8757H17.7778V30.426Z" fill="black"/>
<path fill-rule="evenodd" clip-rule="evenodd" d="M61.3333 19.7751V33.5325C61.3333 36.7188 63.9201 39.3018 67.1111 39.3018C70.3021 39.3018 72.889 36.7188 72.889 33.5325V19.7751H80.0002V33.5325C80.0002 40.6404 74.2296 46.4024 67.1111 46.4024C59.9927 46.4024 54.2222 40.6404 54.2222 33.5325V19.7751H61.3333Z" fill="black"/>
<path fill-rule="evenodd" clip-rule="evenodd" d="M37.3333 32.2012C37.3333 25.3385 42.9049 19.7751 49.7778 19.7751H51.5555V26.8757H49.7778C46.8322 26.8757 44.4444 29.26 44.4444 32.2012V33.0888C44.4444 40.4416 38.4749 46.4024 31.1111 46.4024H30.2222V39.3018H31.1111C34.5476 39.3018 37.3333 36.5201 37.3333 33.0888V32.2012Z" fill="black"/>
<path d="M120 20.6627C120 22.1333 118.806 23.3254 117.333 23.3254C115.86 23.3254 114.667 22.1333 114.667 20.6627C114.667 19.1921 115.86 18 117.333 18C118.806 18 120 19.1921 120 20.6627Z" fill="black"/>
<path d="M87.6355 46.4022L91.0289 32.2138L93.5517 40.7496C95.0557 45.8406 102.278 45.8406 103.782 40.7496L106.304 32.2138L109.698 46.4022H117.009L111.673 24.0918C110.404 18.7862 102.917 18.5897 101.37 23.8215L98.667 32.9702L95.9631 23.8215C94.4173 18.5897 86.929 18.7861 85.6602 24.0917L80.3248 46.4022H87.6355Z" fill="black"/>
</svg>
