<svg width="104" height="64" viewBox="0 0 104 64" fill="none" xmlns="http://www.w3.org/2000/svg">
<path d="M47.6144 47.238H50.3488V36.9237H47.6144V47.238ZM47.6144 35.3152H50.3488V32.8623H47.6144V35.3152Z" fill="black"/>
<path d="M52.1107 50.6159H54.8451V46.072H54.8854C55.4684 46.9566 56.4134 47.5397 57.861 47.5397C60.515 47.5397 62.3245 45.4286 62.3245 42.091C62.3245 38.874 60.5753 36.6423 57.8409 36.6423C56.4335 36.6423 55.4684 37.3058 54.8049 38.2105H54.7446V36.9238H52.1107V50.6159ZM57.278 45.2677C55.6494 45.2677 54.7848 44.0413 54.7848 42.1714C54.7848 40.3217 55.4684 38.8539 57.1774 38.8539C58.8663 38.8539 59.5499 40.2211 59.5499 42.1714C59.5499 44.1217 58.6653 45.2677 57.278 45.2677Z" fill="black"/>
<path d="M67.7791 47.5397C70.3526 47.5397 72.1219 46.2931 72.1219 44.2222C72.1219 41.8095 70.2119 41.327 68.4828 40.9651C67.015 40.6635 65.6478 40.583 65.6478 39.6984C65.6478 38.9545 66.3515 38.5523 67.4172 38.5523C68.5833 38.5523 69.287 38.9545 69.4076 40.0603H71.8807C71.6796 37.9894 70.1717 36.6423 67.4574 36.6423C65.105 36.6423 63.2552 37.7079 63.2552 39.9396C63.2552 42.1915 65.0648 42.6942 66.9145 43.0561C68.3219 43.3375 69.6288 43.4381 69.6288 44.4233C69.6288 45.1471 68.9452 45.6095 67.7388 45.6095C66.5124 45.6095 65.6679 45.0868 65.487 43.9005H62.9536C63.1145 46.0921 64.7833 47.5397 67.7791 47.5397Z" fill="black"/>
<path d="M82.5036 47.2381V36.9238H79.7692V42.8751C79.7692 44.2423 78.9851 45.2074 77.6983 45.2074C76.5322 45.2074 75.9893 44.5439 75.9893 43.3375V36.9238H73.275V43.8C73.275 46.0518 74.5618 47.5196 76.8539 47.5196C78.3015 47.5196 79.1057 46.9767 79.8095 46.0317H79.8698V47.2381H82.5036Z" fill="black"/>
<path d="M84.2723 47.2381H87.0068V41.2465C87.0068 39.8793 87.7507 38.9947 88.8565 38.9947C89.8618 38.9947 90.4449 39.5978 90.4449 40.764V47.2381H93.1793V41.2465C93.1793 39.8793 93.883 38.9947 95.029 38.9947C96.0343 38.9947 96.6174 39.5978 96.6174 40.764V47.2381H99.3518V40.3016C99.3518 38.0497 98.1253 36.6423 95.9539 36.6423C94.647 36.6423 93.5613 37.3259 92.8576 38.4518H92.8174C92.3147 37.3661 91.2692 36.6423 89.9623 36.6423C88.5348 36.6423 87.5295 37.3661 86.9665 38.3111H86.9062V36.9238H84.2723V47.2381Z" fill="black"/>
<path d="M47.6545 29.572H50.3889V15.1963H47.6545V29.572Z" fill="black"/>
<path d="M57.075 29.8737C60.2719 29.8737 62.4634 27.5012 62.4634 24.425C62.4634 21.3488 60.2719 18.9763 57.075 18.9763C53.8782 18.9763 51.6866 21.3488 51.6866 24.425C51.6866 27.5012 53.8782 29.8737 57.075 29.8737ZM57.075 27.7827C55.3861 27.7827 54.4613 26.4356 54.4613 24.425C54.4613 22.4144 55.3861 21.0472 57.075 21.0472C58.7438 21.0472 59.6888 22.4144 59.6888 24.425C59.6888 26.4356 58.7438 27.7827 57.075 27.7827Z" fill="black"/>
<path d="M68.2784 33.0907C69.8065 33.0907 71.1335 32.7288 71.998 31.9245C72.762 31.2208 73.2245 30.2356 73.2245 28.788V19.2578H70.5906V20.3435H70.5504C69.9271 19.479 68.9821 18.9763 67.6953 18.9763C65.0816 18.9763 63.2318 20.9467 63.2318 24.0229C63.2318 27.1393 65.4837 28.9488 67.7758 28.9488C69.0827 28.9488 69.8668 28.4261 70.47 27.7425H70.5303V28.8684C70.5303 30.2758 69.7864 31.0197 68.2382 31.0197C66.9715 31.0197 66.3885 30.5171 66.1673 29.8737H63.453C63.7345 31.8843 65.4636 33.0907 68.2784 33.0907ZM68.2382 26.7573C66.8308 26.7573 65.9059 25.7319 65.9059 23.9827C65.9059 22.2536 66.8308 21.1679 68.2181 21.1679C69.8668 21.1679 70.671 22.4546 70.671 23.9626C70.671 25.4906 69.9673 26.7573 68.2382 26.7573Z" fill="black"/>
<path d="M79.8709 29.8737C83.0677 29.8737 85.2593 27.5012 85.2593 24.425C85.2593 21.3488 83.0677 18.9763 79.8709 18.9763C76.6741 18.9763 74.4825 21.3488 74.4825 24.425C74.4825 27.5012 76.6741 29.8737 79.8709 29.8737ZM79.8709 27.7827C78.182 27.7827 77.2571 26.4356 77.2571 24.425C77.2571 22.4144 78.182 21.0472 79.8709 21.0472C81.5397 21.0472 82.4847 22.4144 82.4847 24.425C82.4847 26.4356 81.5397 27.7827 79.8709 27.7827Z" fill="black"/>
<path d="M87.6562 25.6312H99.4783V23.2788H87.6562V25.6312Z" fill="black"/>
<path d="M100.345 35.1718C100.345 34.7091 100.72 34.334 101.183 34.334H102.858C103.321 34.334 103.696 34.7091 103.696 35.1718C103.696 35.6344 103.321 36.0095 102.858 36.0095H101.183C100.72 36.0095 100.345 35.6344 100.345 35.1718Z" fill="black"/>
<path fill-rule="evenodd" clip-rule="evenodd" d="M20 12C31.0457 12 40 20.9543 40 32C40 43.0457 31.0457 52 20 52C8.9543 52 0 43.0457 0 32C0 20.9543 8.9543 12 20 12ZM19.2771 13.4966C16.9955 13.8177 14.8229 15.6511 13.1364 18.7174C12.6472 19.6068 12.2058 20.5895 11.8211 21.6504C14.1143 21.0742 16.6334 20.7344 19.2771 20.6819V13.4966ZM10.1308 22.1308C10.6091 20.6296 11.1943 19.2484 11.8696 18.0206C12.7056 16.5006 13.6978 15.188 14.8157 14.1798C8.73679 15.9452 3.94522 20.7368 2.17977 26.8157C3.18794 25.6978 4.50059 24.7056 6.02065 23.8696C7.2484 23.1943 8.62957 22.6091 10.1308 22.1308ZM9.65039 23.8211C9.07416 26.1143 8.73442 28.6334 8.68187 31.2771H1.49658C1.81769 28.9954 3.65108 26.8228 6.7174 25.1364C7.60683 24.6472 8.58946 24.2058 9.65039 23.8211ZM10.128 31.2771C10.1877 28.392 10.603 25.6834 11.2902 23.2902C13.6834 22.603 16.3921 22.1876 19.2771 22.1279V25.2508C18.2008 28.0062 16.0056 30.2012 13.2501 31.2771H10.128ZM8.68187 32.7229H1.49658C1.81769 35.0046 3.65108 37.1771 6.7174 38.8636C7.60683 39.3528 8.58946 39.7942 9.65039 40.1789C9.07416 37.8857 8.73442 35.3666 8.68187 32.7229ZM11.2902 40.7098C10.603 38.3166 10.1877 35.608 10.128 32.7229H13.2501C16.0056 33.7988 18.2009 35.9938 19.2771 38.7492V41.8721C16.3921 41.8124 13.6834 41.397 11.2902 40.7098ZM10.1308 41.8692C8.62957 41.3909 7.2484 40.8057 6.02065 40.1304C4.50059 39.2944 3.18794 38.3022 2.17977 37.1843C3.94522 43.2632 8.73679 48.0548 14.8157 49.8202C13.6978 48.812 12.7056 47.4994 11.8696 45.9793C11.1943 44.7516 10.6091 43.3704 10.1308 41.8692ZM19.2771 50.5034C16.9955 50.1823 14.8229 48.3489 13.1364 45.2826C12.6472 44.3932 12.2058 43.4105 11.8211 42.3496C14.1143 42.9258 16.6334 43.2656 19.2771 43.3181V50.5034ZM25.1843 49.8202C26.3022 48.812 27.2944 47.4994 28.1305 45.9793C28.8057 44.7516 29.3909 43.3704 29.8692 41.8692C31.3704 41.3909 32.7516 40.8057 33.9794 40.1304C35.4994 39.2944 36.8121 38.3022 37.8202 37.1843C36.0548 43.2632 31.2632 48.0548 25.1843 49.8202ZM28.1789 42.3496C27.7942 43.4105 27.3528 44.3932 26.8636 45.2826C25.1772 48.3489 23.0046 50.1823 20.7229 50.5034V43.3181C23.3666 43.2656 25.8857 42.9258 28.1789 42.3496ZM30.3496 40.1789C31.4105 39.7942 32.3932 39.3528 33.2826 38.8636C36.3489 37.1771 38.1823 35.0046 38.5034 32.7229H31.3181C31.2656 35.3666 30.9258 37.8857 30.3496 40.1789ZM29.8721 32.7229C29.8124 35.608 29.397 38.3166 28.7098 40.7098C26.3166 41.397 23.608 41.8124 20.7229 41.8721V38.7515C21.7988 35.9951 23.9945 33.7991 26.7508 32.7229H29.8721ZM31.3181 31.2771H38.5034C38.1823 28.9954 36.3489 26.8228 33.2826 25.1364C32.3932 24.6472 31.4105 24.2058 30.3496 23.8211C30.9258 26.1143 31.2656 28.6334 31.3181 31.2771ZM28.7098 23.2902C29.397 25.6834 29.8124 28.392 29.8721 31.2771H26.7508C23.9945 30.2009 21.7988 28.0049 20.7229 25.2485V22.1279C23.608 22.1876 26.3166 22.603 28.7098 23.2902ZM29.8692 22.1308C31.3704 22.6091 32.7516 23.1943 33.9794 23.8696C35.4994 24.7056 36.8121 25.6978 37.8202 26.8157C36.0548 20.7368 31.2632 15.9452 25.1843 14.1798C26.3022 15.188 27.2944 16.5006 28.1305 18.0206C28.8057 19.2484 29.3909 20.6296 29.8692 22.1308ZM20.7229 13.4966C23.0046 13.8177 25.1772 15.6511 26.8636 18.7174C27.3528 19.6068 27.7942 20.5895 28.1789 21.6504C25.8857 21.0742 23.3666 20.7344 20.7229 20.6819V13.4966Z" fill="black"/>
</svg>
