<svg width="54" height="64" viewBox="0 0 54 64" fill="none" xmlns="http://www.w3.org/2000/svg">
<path d="M54 12.5C54 12.8978 53.842 13.2794 53.5607 13.5607C53.2794 13.842 52.8978 14 52.5 14C52.1022 14 51.7206 13.842 51.4393 13.5607C51.158 13.2794 51 12.8978 51 12.5C51 12.1022 51.158 11.7206 51.4393 11.4393C51.7206 11.158 52.1022 11 52.5 11C52.8978 11 53.2794 11.158 53.5607 11.4393C53.842 11.7206 54 12.1022 54 12.5Z" fill="black"/>
<path fill-rule="evenodd" clip-rule="evenodd" d="M13.75 51.794C6.156 51.794 0 45.638 0 38.044V12H5V38.044C5 40.3646 5.92187 42.5902 7.56282 44.2312C9.20376 45.8721 11.4294 46.794 13.75 46.794C18.643 46.794 22.5 43.023 22.5 38.25H27.5V45.75C27.5 46.0815 27.6317 46.3995 27.8661 46.6339C28.1005 46.8683 28.4185 47 28.75 47C29.0815 47 29.3995 46.8683 29.6339 46.6339C29.8683 46.3995 30 46.0815 30 45.75V36.875C29.0918 37.0604 28.1538 37.0414 27.2538 36.8196C26.3539 36.5977 25.5146 36.1784 24.7967 35.5921C24.0787 35.0058 23.5002 34.2672 23.103 33.4297C22.7058 32.5922 22.4998 31.6769 22.5 30.75V18.25C22.5 16.5924 23.1585 15.0027 24.3306 13.8306C25.5027 12.6585 27.0924 12 28.75 12C30.4076 12 31.9973 12.6585 33.1694 13.8306C34.3415 15.0027 35 16.5924 35 18.25V45.75C35 46.0815 35.1317 46.3995 35.3661 46.6339C35.6005 46.8683 35.9185 47 36.25 47C36.5815 47 36.8995 46.8683 37.1339 46.6339C37.3683 46.3995 37.5 46.0815 37.5 45.75V18.25C37.5 16.5924 38.1585 15.0027 39.3306 13.8306C40.5027 12.6585 42.0924 12 43.75 12C45.4076 12 46.9973 12.6585 48.1694 13.8306C49.3415 15.0027 50 16.5924 50 18.25V45.75C50 46.9107 49.6768 48.0485 49.0666 49.0358C48.4564 50.0232 47.5832 50.8211 46.5451 51.3402C45.5069 51.8593 44.3447 52.079 43.1887 51.9747C42.0327 51.8705 40.9286 51.4464 40 50.75C38.9191 51.5632 37.6026 52.002 36.25 52C34.8974 52.002 33.5809 51.5632 32.5 50.75C31.7478 51.3141 30.878 51.7012 29.9554 51.8826C29.0328 52.064 28.0812 52.0349 27.1714 51.7975C26.2616 51.5601 25.4171 51.1205 24.7008 50.5115C23.9844 49.9025 23.4147 49.1397 23.034 48.28C20.578 50.477 17.311 51.794 13.75 51.794ZM43.75 47C43.06 47 42.5 46.44 42.5 45.75V18.25C42.5 17.9185 42.6317 17.6005 42.8661 17.3661C43.1005 17.1317 43.4185 17 43.75 17C44.0815 17 44.3995 17.1317 44.6339 17.3661C44.8683 17.6005 45 17.9185 45 18.25V45.75C45 46.44 44.44 47 43.75 47ZM30 30.75C30 31.0815 29.8683 31.3995 29.6339 31.6339C29.3995 31.8683 29.0815 32 28.75 32C28.4185 32 28.1005 31.8683 27.8661 31.6339C27.6317 31.3995 27.5 31.0815 27.5 30.75V18.25C27.5 17.9185 27.6317 17.6005 27.8661 17.3661C28.1005 17.1317 28.4185 17 28.75 17C29.0815 17 29.3995 17.1317 29.6339 17.3661C29.8683 17.6005 30 17.9185 30 18.25V30.75Z" fill="black"/>
<path fill-rule="evenodd" clip-rule="evenodd" d="M7.5 38.25C7.5 39.9076 8.15848 41.4973 9.33058 42.6694C10.5027 43.8415 12.0924 44.5 13.75 44.5C15.4076 44.5 16.9973 43.8415 18.1694 42.6694C19.3415 41.4973 20 39.9076 20 38.25V18.25C20 16.5924 19.3415 15.0027 18.1694 13.8306C16.9973 12.6585 15.4076 12 13.75 12C12.0924 12 10.5027 12.6585 9.33058 13.8306C8.15848 15.0027 7.5 16.5924 7.5 18.25V38.25ZM13.75 39.5C13.06 39.5 12.5 38.94 12.5 38.25V18.25C12.5 17.9185 12.6317 17.6005 12.8661 17.3661C13.1005 17.1317 13.4185 17 13.75 17C14.0815 17 14.3995 17.1317 14.6339 17.3661C14.8683 17.6005 15 17.9185 15 18.25V38.25C15 38.94 14.44 39.5 13.75 39.5Z" fill="black"/>
</svg>
