<svg width="175" height="64" viewBox="0 0 175 64" fill="none" xmlns="http://www.w3.org/2000/svg">
<path d="M170.394 19.6642L174.568 23.8668C174.714 23.9829 174.822 24.1396 174.878 24.3171C174.963 25.3515 174.18 25.4081 173.38 25.4659C173.034 25.4909 172.685 25.5162 172.402 25.621C170.998 26.0009 169.746 26.8033 168.815 27.9193C167.883 29.0353 167.318 30.4109 167.195 31.8593C167.105 32.0266 166.969 32.1643 166.802 32.2558C166.636 32.3474 166.447 32.3888 166.257 32.3753C166.037 32.3558 165.831 32.2595 165.675 32.1032L164.305 30.7238C164.315 30.8182 164.315 30.9117 164.315 30.9869V31.8968C164.315 31.9543 164.317 32.0097 164.31 32.065C164.301 32.127 164.28 32.1888 164.231 32.2532V32.3377C164.231 32.3808 164.236 32.4209 164.241 32.4616C164.251 32.5449 164.262 32.6307 164.231 32.7505C164.201 32.8622 164.198 32.9925 164.194 33.1088C164.193 33.1779 164.191 33.2421 164.184 33.2945C164.174 33.3672 164.174 33.4448 164.168 33.5223C164.162 33.5949 164.15 33.6674 164.118 33.7354C164.074 33.8306 164.059 33.9215 164.055 34.0139C164.052 34.0581 164.052 34.1026 164.052 34.1482L163.996 34.439L161.867 44.5891L161.698 45.3489L161.632 46.4559L160.694 51.2495L160.544 52H84.6248L84.2589 51.6341L84.1932 51.9531H76.0694L71.5478 47.4034L71.9793 45.3489H69.4277L67.8424 43.7448C65.8749 45.1775 63.4934 45.9285 61.06 45.8837C58.4442 45.9866 55.8941 45.0488 53.9681 43.2758L51.5009 40.7899L50.9662 43.2851C50.9006 43.6416 50.8161 43.9794 50.7223 44.3077L50.6379 44.6173L50.4972 45.0675C50.4856 45.1066 50.4699 45.1444 50.4503 45.1801C50.3106 45.5937 50.1446 45.9979 49.9531 46.3902C49.9581 46.4054 49.9581 46.4219 49.9531 46.4371C49.9285 46.4891 49.9003 46.5392 49.8686 46.5872C49.727 46.8675 49.5705 47.1399 49.3996 47.4034C49.3679 47.4513 49.3397 47.5015 49.3152 47.5535L49.212 47.666C48.9827 47.9949 48.732 48.3082 48.4615 48.6041C48.3873 48.6783 48.3131 48.748 48.2377 48.8164C48.1607 48.8864 48.0825 48.9551 48.0018 49.0262L47.7955 49.2232C47.6654 49.3313 47.5323 49.4356 47.3964 49.5361C47.2843 49.619 47.1703 49.6992 47.0544 49.7767C45.1211 50.9222 42.891 51.4674 40.6473 51.3433C37.5516 51.3433 35.075 50.4427 33.5084 48.8668L29.0994 44.4296C27.3383 45.4262 25.3442 45.9377 23.3208 45.9118C20.7129 45.9925 18.1782 45.042 16.2664 43.2664L13.7993 40.7805L13.0019 44.6173L12.8424 45.3771H4.54036L0 40.7992L0.234521 39.6923L5.22515 15.7242L5.37521 14.9737H13.7054L13.9212 15.1801V14.9737H70.0469L70.2533 15.1801V14.9737H78.3771L82.9174 19.5516L82.6923 20.6491L82.4484 21.8499H84.7842L85.1501 22.2158C86.1779 21.6134 87.3453 21.29 88.5366 21.2777C89.4126 21.2604 90.2825 21.4268 91.0903 21.7661C91.8982 22.1054 92.626 22.61 93.227 23.2476L93.105 23.1069L95.3095 25.3302C96.651 22.8068 99.6622 21.2777 103.752 21.2777C106.923 21.2777 109.259 22.0844 110.675 23.5478L112.27 25.152L112.805 22.5722L112.964 21.8217H121.097L123.424 24.1576L123.752 22.5816L123.912 21.8311H139.916L140.347 22.2627C141.431 21.6231 142.672 21.2982 143.931 21.3246C144.688 21.295 145.442 21.4336 146.14 21.7305C146.837 22.0273 147.46 22.475 147.964 23.0413C147.938 23.0118 147.913 22.9823 147.888 22.9533C147.843 22.8995 147.798 22.847 147.75 22.7984L148.565 23.6135C149.275 22.8782 150.129 22.2959 151.072 21.9024C152.016 21.5088 153.03 21.3121 154.052 21.3246C154.595 21.2912 155.137 21.3374 155.663 21.4603L154.775 20.5647C154.654 20.4353 154.572 20.2742 154.539 20.1002C154.506 19.9262 154.523 19.7463 154.587 19.5815C154.652 19.4166 154.762 19.2734 154.905 19.1685C155.048 19.0637 155.217 19.0013 155.394 18.9887H156.107C156.299 18.9704 156.49 18.9423 156.679 18.9043C157.676 18.6947 158.614 18.2662 159.425 17.6497C160.237 17.0332 160.901 16.2442 161.37 15.3396C161.411 15.2696 161.448 15.1977 161.482 15.1238V15.077C161.805 14.3822 162.001 13.6358 162.064 12.8724C162.08 12.6352 162.187 12.4131 162.361 12.2512C162.535 12.0892 162.764 11.9994 163.002 12H163.077C163.219 12.0135 163.357 12.0594 163.479 12.1342C163.601 12.209 163.704 12.3107 163.781 12.4315C164.456 13.0882 168.208 16.9062 168.208 16.9062C168.521 17.2424 168.498 17.6789 168.474 18.1205C168.459 18.3935 168.444 18.6686 168.508 18.9231C168.679 18.9537 168.852 18.9769 169.024 18.9926C169.19 19.0075 169.356 19.0157 169.522 19.0169C169.716 19.0209 169.905 19.0854 170.061 19.2014C170.217 19.3173 170.334 19.4791 170.394 19.6642Z" fill="black"/>
<path d="M42.9361 22.7505H48.8648L45.544 38.5009C44.9343 41.484 43.771 43.1914 42.0074 44.4015C40.2236 45.4366 38.1753 45.9258 36.1163 45.8086C32.1951 45.8086 28.4333 44.167 28.0581 40.1801H34.0243C34.2119 41.1182 35.075 41.6529 36.3883 41.6529C38.1613 41.6529 38.9774 40.5835 39.3433 38.9043L39.6997 37.1688H39.5684C39.0449 37.7443 38.4099 38.2073 37.702 38.5298C36.994 38.8523 36.228 39.0276 35.4502 39.045C31.9981 39.045 29.2588 36.2964 29.3151 32.272C29.3902 27.5816 32.4483 22.2533 37.5797 22.2533C38.5521 22.1878 39.5229 22.4021 40.3774 22.8709C41.2319 23.3396 41.9342 24.0433 42.4014 24.8987H42.5046L42.9361 22.7505ZM37.8423 34.6454C40.1219 34.6454 41.3883 32.0188 41.4258 29.758C41.4258 28.2477 40.8348 26.6998 39.09 26.6998C36.7072 26.6998 35.4971 29.3546 35.4596 31.6341C35.4596 33.1726 36.0506 34.6454 37.7954 34.6454M104.4 35.152C104.4 36.1557 103.536 36.5591 102.401 36.5591C100.525 36.5591 99.8967 35.621 99.8873 34.3077H93.9868C93.8836 39.2045 98.2551 40.4146 102.139 40.4146C107.101 40.4146 110.319 38.2664 110.385 33.9794C110.385 30.5553 107.467 29.5141 104.597 28.848C102.392 28.3415 101.426 27.9756 101.435 27.1407C101.445 26.3058 102.43 25.9681 103.396 25.9681C104.606 25.9681 105.431 26.3996 105.516 27.5066H111.248C111.182 23.4165 107.495 22.2158 103.743 22.2158C99.1838 22.2158 95.6284 24.2889 95.5721 28.2101C95.5721 31.2964 97.6547 32.4315 100.797 33.2383C102.814 33.773 104.418 33.9418 104.4 35.152ZM148.236 25.2927H148.133C147.878 24.3689 147.314 23.5602 146.536 23.0005C145.758 22.4409 144.812 22.164 143.855 22.2158C141.304 22.2158 139.747 23.4822 138.274 25.3959H138.171L138.715 22.7505H132.748L129.174 39.8424H135.413L137.289 30.621C137.72 28.6135 138.743 27.2064 140.291 27.2064C141.839 27.2064 142.045 28.4446 141.726 29.955L139.662 39.8424H145.9L147.777 30.621C148.208 28.4822 149.231 27.2064 150.778 27.2064C152.326 27.2064 152.533 28.379 152.214 29.955L150.15 39.8424H156.388L158.621 29.6829C159.559 25.3959 158.124 22.1782 154.006 22.1782C152.86 22.1735 151.732 22.4561 150.724 23.0002C149.716 23.5443 148.861 24.3325 148.236 25.2927ZM1.14441 39.8424H7.58906L12.5703 15.8743H6.13503L1.14441 39.8424ZM20.544 22.2439C24.8967 22.2439 29.0525 24.6266 28.9868 30.0206C28.9305 35.9212 24.9155 40.3396 18.7804 40.3396C14.559 40.3396 10.3377 37.9944 10.4127 32.6285C10.5159 26.8687 14.4746 22.2439 20.544 22.2439ZM18.9587 36.1557C21.7073 36.1557 22.711 32.1688 22.711 29.8236C22.711 28.1445 22.1951 26.5028 20.3845 26.5028C17.6641 26.5028 16.7354 30.7242 16.7354 32.9006C16.7354 34.6454 17.2232 36.1557 18.9962 36.1557M14.7185 15.8743L13.7804 20.6679H67.8986L68.8367 15.8743H14.7185ZM58.2457 22.2439C62.5984 22.2439 66.7541 24.6266 66.6885 30.0206C66.6322 35.9212 62.6078 40.3396 56.4727 40.3396C52.2513 40.3396 48.0299 37.9944 48.1144 32.6285C48.2457 26.8687 52.2044 22.2439 58.2457 22.2439ZM56.6885 36.1557C59.4371 36.1557 60.4408 32.1688 60.4408 29.8236C60.4408 28.1445 59.9155 26.5028 58.105 26.5028C55.3939 26.5028 54.4558 30.7242 54.4558 32.9006C54.4558 34.6454 54.9436 36.1557 56.726 36.1557M71.0506 15.8743L70.1125 20.6679H76.3414L77.2795 15.8743H71.0506ZM66.06 39.8424H72.2982L75.8723 22.7505H69.5965L66.06 39.8424ZM85.9661 40.4146C84.9733 40.4851 83.9804 40.2776 83.0988 39.8153C82.2173 39.353 81.482 38.6542 80.9755 37.7974H80.8723L78.9962 46.4465H72.6828L77.7485 22.7505H83.6772L83.2082 25.03C83.8273 24.188 84.6293 23.4973 85.5538 23.0098C86.4783 22.5224 87.5013 22.2509 88.5459 22.2158C92.2982 22.2158 94.5027 25.4334 94.4371 29.6173C94.3526 34.8799 91.6228 40.4146 85.9286 40.4146H85.9661ZM85.7222 27.0563C83.3114 27.0563 81.8292 30.1426 81.7917 32.516C81.7917 34.167 82.3733 36.0056 84.3526 36.0056C86.9324 36.0056 87.9924 32.591 88.0205 30.3114C88.0205 28.7636 87.5703 27.0563 85.7222 27.0563ZM121.792 37.1501H121.895L121.351 39.8612H127.279L130.854 22.7692H124.625L122.636 32.3189C122.233 34.2983 121.013 35.3396 119.475 35.3396C117.936 35.3396 117.598 33.8949 117.908 32.3846L119.925 22.7692H113.696L111.491 33.3227C110.553 37.9193 112.692 40.3959 116.276 40.3959C117.401 40.3849 118.504 40.0774 119.472 39.5042C120.44 38.931 121.241 38.1125 121.792 37.1313V37.1501ZM155.253 46.531L156.191 41.7373H82.2138L81.2757 46.531H155.253Z" fill="white"/>
<path d="M161.96 27.4409C161.899 27.4362 161.839 27.4193 161.784 27.3912C161.728 27.3632 161.679 27.3245 161.639 27.2774C161.599 27.2303 161.569 27.1758 161.55 27.1169C161.531 27.058 161.524 26.996 161.529 26.9343C161.607 26.0989 161.508 25.2563 161.238 24.4619C160.968 23.6675 160.533 22.939 159.961 22.3244C159.39 21.7097 158.695 21.2227 157.923 20.8952C157.15 20.5677 156.317 20.4071 155.478 20.424C155.354 20.424 155.235 20.3746 155.147 20.2866C155.059 20.1987 155.009 20.0793 155.009 19.9549C155.009 19.8305 155.059 19.7113 155.147 19.6233C155.235 19.5353 155.354 19.4859 155.478 19.4859C155.703 19.5004 155.929 19.5004 156.154 19.4859C157.82 19.3084 159.372 18.5556 160.543 17.3571C161.715 16.1585 162.431 14.5892 162.57 12.9193C162.58 12.8015 162.633 12.6917 162.72 12.6117C162.807 12.5317 162.921 12.4874 163.039 12.4878C163.101 12.4925 163.161 12.5094 163.216 12.5375C163.271 12.5655 163.32 12.6042 163.36 12.6513C163.401 12.6984 163.431 12.7529 163.45 12.8118C163.469 12.8707 163.476 12.9327 163.471 12.9944C163.393 13.829 163.492 14.6708 163.761 15.4645C164.031 16.2583 164.465 16.9862 165.035 17.6007C165.606 18.2152 166.299 18.7025 167.07 19.0305C167.842 19.3586 168.674 19.5202 169.512 19.5047C169.636 19.5047 169.756 19.5541 169.844 19.6421C169.932 19.73 169.981 19.8493 169.981 19.9737C169.981 20.0981 169.932 20.2174 169.844 20.3054C169.756 20.3933 169.636 20.4428 169.512 20.4428C167.73 20.4722 166.021 21.1587 164.714 22.3707C163.407 23.5826 162.593 25.2345 162.43 27.0094C162.42 27.1272 162.367 27.2371 162.28 27.3171C162.193 27.3971 162.079 27.4413 161.96 27.4409Z" fill="white"/>
</svg>
